# xmcd
#
# Track frame offsets: 
#        150
#        16556
#        37391
#        57623
#        81582
#        100384
#        124164
#        155275
#        178691
#        219260
#
# Disc length: 3093 seconds
#
# Revision: 1
# Processed by: cddbd v1.5.1PL0 Copyright (c) Steve Scherf et al.
# Submitted via: ExactAudioCopy v0.90b3
#
DISCID=880c130a
DTITLE=Popa Chubby - How'd a White Boy Get the Blues ?
DYEAR=2001
DGENRE=Blues
TTITLE0=Daddy Played the Guitar And Mama Was a Disco Queen
TTITLE1=Black Hearted Woman
TTITLE2=Carrying On the Torch of the Blues
TTITLE3=Time is Killing Me
TTITLE4=Savin' My Love Up For My Lover
TTITLE5=No Comfort
TTITLE6=It's a Sad Day In New York City When There Ain't No Room for t
TTITLE6=he Blues
TTITLE7=Goin'g Down to Willie's
TTITLE8=Since I Lost My Leg
TTITLE9=How'd a White Boy Get the Blues
EXTD=
EXTT0=
EXTT1=
EXTT2=
EXTT3=
EXTT4=
EXTT5=
EXTT6=
EXTT7=
EXTT8=
EXTT9=
PLAYORDER=
